{
  "accessors": [
    {
      "bufferView": 2,
      "componentType": 5126,
      "count": 140,
      "max": [
        3.2559499740600586,
        2.9893798828125,
        1.3284000158309937
      ],
      "min": [
        -5.456890106201172,
        -6.4759697914123535,
        0.010830000042915344
      ],
      "type": "VEC3"
    },
    {
      "bufferView": 2,
      "byteOffset": 1680,
      "componentType": 5126,
      "count": 140,
      "max": [
        0.9999833703041077,
        0.9999805092811584,
        0.08057238161563873
      ],
      "min": [
        -0.9999619126319885,
        -0.998004674911499,
        -0.03671085461974144
      ],
      "type": "VEC3"
    },
    {
      "bufferView": 1,
      "componentType": 5126,
      "count": 140,
      "max": [
        0.9909200072288513,
        0.14268000423908234
      ],
      "min": [
        0.9638699889183044,
        0.14268000423908234
      ],
      "type": "VEC2"
    },
    {
      "bufferView": 0,
      "componentType": 5125,
      "count": 414,
      "type": "SCALAR"
    },
    {
      "bufferView": 2,
      "byteOffset": 3360,
      "componentType": 5126,
      "count": 742,
      "max": [
        8.854029655456543,
        9.11736011505127,
        3.974839925765991
      ],
      "min": [
        -5.71999979019165,
        -3.49399995803833,
        -0.06154000014066696
      ],
      "type": "VEC3"
    },
    {
      "bufferView": 2,
      "byteOffset": 12264,
      "componentType": 5126,
      "count": 742,
      "max": [
        1.0,
        1.0,
        1.0
      ],
      "min": [
        -1.0,
        -1.0,
        -1.0
      ],
      "type": "VEC3"
    },
    {
      "bufferView": 1,
      "byteOffset": 1120,
      "componentType": 5126,
      "count": 742,
      "max": [
        0.9915000200271606,
        0.9986000061035156
      ],
      "min": [
        0.006380000151693821,
        0.00646999990567565
      ],
      "type": "VEC2"
    },
    {
      "bufferView": 0,
      "byteOffset": 1656,
      "componentType": 5125,
      "count": 1608,
      "type": "SCALAR"
    }
  ],
  "asset": {
    "extras": {
      "author": "maxdragonn (https://sketchfab.com/maxdragon)",
      "license": "CC-BY-4.0 (http://creativecommons.org/licenses/by/4.0/)",
      "source": "https://sketchfab.com/3d-models/broken-betamax-ffbccdfb9c334ebd8f719f766b2bd765",
      "title": "broken betamax"
    },
    "generator": "Sketchfab-12.67.0",
    "version": "2.0"
  },
  "bufferViews": [
    {
      "buffer": 0,
      "byteLength": 8088,
      "name": "floatBufferViews",
      "target": 34963
    },
    {
      "buffer": 0,
      "byteLength": 7056,
      "byteOffset": 8088,
      "byteStride": 8,
      "name": "floatBufferViews",
      "target": 34962
    },
    {
      "buffer": 0,
      "byteLength": 21168,
      "byteOffset": 15144,
      "byteStride": 12,
      "name": "floatBufferViews",
      "target": 34962
    }
  ],
  "buffers": [
    {
      "byteLength": 36312,
      "uri": "scene.bin"
    }
  ],
  "images": [
    {
      "uri": "textures/tape_baseColor.png"
    },
    {
      "uri": "textures/betamax_baseColor.png"
    }
  ],
  "materials": [
    {
      "doubleSided": true,
      "name": "tape",
      "pbrMetallicRoughness": {
        "baseColorTexture": {
          "index": 0
        },
        "metallicFactor": 0.14155403145881595,
        "roughnessFactor": 0.2139476132280247
      }
    },
    {
      "doubleSided": true,
      "name": "betamax",
      "pbrMetallicRoughness": {
        "baseColorTexture": {
          "index": 1
        },
        "metallicFactor": 0.0,
        "roughnessFactor": 0.6462084040153464
      }
    }
  ],
  "meshes": [
    {
      "name": "betamax_broken_c_0",
      "primitives": [
        {
          "attributes": {
            "NORMAL": 1,
            "POSITION": 0,
            "TEXCOORD_0": 2
          },
          "indices": 3,
          "material": 0,
          "mode": 4
        }
      ]
    },
    {
      "name": "betamax_broken_c_1",
      "primitives": [
        {
          "attributes": {
            "NORMAL": 5,
            "POSITION": 4,
            "TEXCOORD_0": 6
          },
          "indices": 7,
          "material": 1,
          "mode": 4
        }
      ]
    }
  ],
  "nodes": [
    {
      "children": [
        1
      ],
      "matrix": [
        1.0,
        0.0,
        0.0,
        0.0,
        0.0,
        2.220446049250313e-16,
        -1.0,
        0.0,
        0.0,
        1.0,
        2.220446049250313e-16,
        0.0,
        0.0,
        0.0,
        0.0,
        1.0
      ],
      "name": "Sketchfab_model"
    },
    {
      "children": [
        2,
        4
      ],
      "name": "Root"
    },
    {
      "children": [
        3
      ],
      "matrix": [
        -0.29086000000000006,
        0.9551700000000001,
        -0.05519000000000001,
        0.0,
        -0.7711,
        -0.19988000000000003,
        0.6045200000000001,
        0.0,
        0.5663900000000001,
        0.21839000000000003,
        0.7946700000000001,
        0.0,
        4.076250000000001,
        1.00545,
        5.903860000000001,
        1.0
      ],
      "name": "Lamp"
    },
    {
      "name": "Lamp"
    },
    {
      "children": [
        5,
        6
      ],
      "matrix": [
        1.0,
        0.0,
        0.0,
        0.0,
        0.0,
        1.0,
        0.0,
        0.0,
        0.0,
        0.0,
        1.0,
        0.0,
        -79.0,
        0.0,
        10.0,
        1.0
      ],
      "name": "betamax_broken_c"
    },
    {
      "mesh": 0,
      "name": "betamax_broken_c_0"
    },
    {
      "mesh": 1,
      "name": "betamax_broken_c_1"
    }
  ],
  "samplers": [
    {
      "magFilter": 9729,
      "minFilter": 9987,
      "wrapS": 10497,
      "wrapT": 10497
    }
  ],
  "scene": 0,
  "scenes": [
    {
      "name": "Sketchfab_Scene",
      "nodes": [
        0
      ]
    }
  ],
  "textures": [
    {
      "sampler": 0,
      "source": 0
    },
    {
      "sampler": 0,
      "source": 1
    }
  ]
}
