{
	"asset":{
		"generator":"Khronos glTF Blender I/O v4.2.70",
		"version":"2.0"
	},
	"scene":0,
	"scenes":[
		{
			"name":"Scene",
			"nodes":[
				6
			]
		}
	],
	"nodes":[
		{
			"mesh":0,
			"name":"betamax_broken_c_0"
		},
		{
			"mesh":1,
			"name":"betamax_broken_c_1"
		},
		{
			"children":[
				0,
				1
			],
			"name":"betamax_broken_c",
			"rotation":[
				-0.4944767653942108,
				0.04411272332072258,
				0.07713508605957031,
				0.8646369576454163
			],
			"translation":[
				-0.9302579760551453,
				-2.3605828285217285,
				7.69451904296875
			]
		},
		{
			"name":"Lamp.001"
		},
		{
			"children":[
				3
			],
			"name":"Lamp",
			"rotation":[
				0.16907529532909393,
				0.27217087149620056,
				0.7558793425559998,
				0.5709494352340698
			],
			"scale":[
				0.9999976754188538,
				0.9999959468841553,
				0.9999961256980896
			],
			"translation":[
				4.076250076293945,
				1.0054500102996826,
				5.903860092163086
			]
		},
		{
			"children":[
				2,
				4
			],
			"name":"Root"
		},
		{
			"children":[
				5
			],
			"name":"Sketchfab_model",
			"rotation":[
				-0.70710688829422,
				0,
				0,
				0.7071066498756409
			]
		}
	],
	"materials":[
		{
			"doubleSided":true,
			"name":"tape",
			"pbrMetallicRoughness":{
				"baseColorTexture":{
					"index":0
				},
				"metallicFactor":0.14155402779579163,
				"roughnessFactor":0.2139476090669632
			}
		},
		{
			"doubleSided":true,
			"name":"betamax",
			"pbrMetallicRoughness":{
				"baseColorTexture":{
					"index":1
				},
				"metallicFactor":0,
				"roughnessFactor":0.6462084054946899
			}
		}
	],
	"meshes":[
		{
			"name":"betamax_broken_c_0",
			"primitives":[
				{
					"attributes":{
						"POSITION":0,
						"NORMAL":1,
						"TEXCOORD_0":2
					},
					"indices":3,
					"material":0
				}
			]
		},
		{
			"name":"betamax_broken_c_1",
			"primitives":[
				{
					"attributes":{
						"POSITION":4,
						"NORMAL":5,
						"TEXCOORD_0":6
					},
					"indices":7,
					"material":1
				}
			]
		}
	],
	"textures":[
		{
			"sampler":0,
			"source":0
		},
		{
			"sampler":0,
			"source":1
		}
	],
	"images":[
		{
			"mimeType":"image/png",
			"name":"tape_baseColor",
			"uri":"tape_baseColor.png"
		},
		{
			"mimeType":"image/png",
			"name":"betamax_baseColor",
			"uri":"betamax_baseColor.png"
		}
	],
	"accessors":[
		{
			"bufferView":0,
			"componentType":5126,
			"count":140,
			"max":[
				3.2559499740600586,
				2.9893798828125,
				1.3284000158309937
			],
			"min":[
				-5.456890106201172,
				-6.4759697914123535,
				0.010830000042915344
			],
			"type":"VEC3"
		},
		{
			"bufferView":1,
			"componentType":5126,
			"count":140,
			"type":"VEC3"
		},
		{
			"bufferView":2,
			"componentType":5126,
			"count":140,
			"type":"VEC2"
		},
		{
			"bufferView":3,
			"componentType":5123,
			"count":414,
			"type":"SCALAR"
		},
		{
			"bufferView":4,
			"componentType":5126,
			"count":804,
			"max":[
				8.854029655456543,
				9.11736011505127,
				3.974839925765991
			],
			"min":[
				-5.71999979019165,
				-3.49399995803833,
				-0.06154000014066696
			],
			"type":"VEC3"
		},
		{
			"bufferView":5,
			"componentType":5126,
			"count":804,
			"type":"VEC3"
		},
		{
			"bufferView":6,
			"componentType":5126,
			"count":804,
			"type":"VEC2"
		},
		{
			"bufferView":7,
			"componentType":5123,
			"count":1608,
			"type":"SCALAR"
		}
	],
	"bufferViews":[
		{
			"buffer":0,
			"byteLength":1680,
			"byteOffset":0,
			"target":34962
		},
		{
			"buffer":0,
			"byteLength":1680,
			"byteOffset":1680,
			"target":34962
		},
		{
			"buffer":0,
			"byteLength":1120,
			"byteOffset":3360,
			"target":34962
		},
		{
			"buffer":0,
			"byteLength":828,
			"byteOffset":4480,
			"target":34963
		},
		{
			"buffer":0,
			"byteLength":9648,
			"byteOffset":5308,
			"target":34962
		},
		{
			"buffer":0,
			"byteLength":9648,
			"byteOffset":14956,
			"target":34962
		},
		{
			"buffer":0,
			"byteLength":6432,
			"byteOffset":24604,
			"target":34962
		},
		{
			"buffer":0,
			"byteLength":3216,
			"byteOffset":31036,
			"target":34963
		}
	],
	"samplers":[
		{
			"magFilter":9729,
			"minFilter":9987
		}
	],
	"buffers":[
		{
			"byteLength":34252,
			"uri":"untitled.bin"
		}
	]
}
